<svg width="30" height="30" viewBox="0 0 30 30" fill="none" xmlns="http://www.w3.org/2000/svg">
<circle cx="15" cy="15" r="15" fill="#F0F2FF"/>
<path d="M7.5 14.4688C6.94772 14.4688 6.5 14.9165 6.5 15.4688C6.5 16.021 6.94772 16.4688 7.5 16.4688V14.4688ZM23.2071 16.1759C23.5976 15.7853 23.5976 15.1522 23.2071 14.7616L16.8431 8.39768C16.4526 8.00716 15.8195 8.00716 15.4289 8.39768C15.0384 8.78821 15.0384 9.42137 15.4289 9.8119L21.0858 15.4688L15.4289 21.1256C15.0384 21.5161 15.0384 22.1493 15.4289 22.5398C15.8195 22.9303 16.4526 22.9303 16.8431 22.5398L23.2071 16.1759ZM7.5 16.4688H22.5V14.4688H7.5V16.4688Z" fill="#2F3DB8"/>
</svg>
