<svg width="36" height="36" viewBox="0 0 36 36" fill="none" xmlns="http://www.w3.org/2000/svg">
<g id="clarity:bell-line" clip-path="url(#clip0_774_6872)">
<path id="Vector" d="M32.5098 27.8299C31.5455 26.9702 30.7013 25.9847 29.9998 24.8999C29.234 23.4025 28.775 21.7671 28.6498 20.0899V15.1499C28.6564 12.5155 27.7008 9.96938 25.9625 7.98988C24.2243 6.01037 21.823 4.73376 19.2098 4.3999V3.1099C19.2098 2.75584 19.0692 2.41628 18.8188 2.16591C18.5684 1.91555 18.2289 1.7749 17.8748 1.7749C17.5207 1.7749 17.1812 1.91555 16.9308 2.16591C16.6805 2.41628 16.5398 2.75584 16.5398 3.1099V4.4199C13.9501 4.77783 11.5778 6.06216 9.86233 8.03501C8.14689 10.0079 7.20453 12.5355 7.2098 15.1499V20.0899C7.08456 21.7671 6.62558 23.4025 5.8598 24.8999C5.17069 25.9823 4.34 26.9676 3.3898 27.8299C3.28314 27.9236 3.19765 28.039 3.13902 28.1683C3.0804 28.2976 3.04998 28.4379 3.0498 28.5799V29.9399C3.0498 30.2051 3.15516 30.4595 3.3427 30.647C3.53023 30.8345 3.78459 30.9399 4.0498 30.9399H31.8498C32.115 30.9399 32.3694 30.8345 32.5569 30.647C32.7444 30.4595 32.8498 30.2051 32.8498 29.9399V28.5799C32.8496 28.4379 32.8192 28.2976 32.7606 28.1683C32.702 28.039 32.6165 27.9236 32.5098 27.8299ZM5.1298 28.9399C6.06021 28.0411 6.8794 27.0339 7.56981 25.9399C8.53442 24.1314 9.09724 22.1359 9.2198 20.0899V15.1499C9.18015 13.9779 9.37673 12.81 9.79785 11.7156C10.219 10.6212 10.856 9.62269 11.6711 8.7796C12.4861 7.93652 13.4624 7.26607 14.542 6.80818C15.6215 6.35028 16.7822 6.11431 17.9548 6.11431C19.1274 6.11431 20.2881 6.35028 21.3676 6.80818C22.4472 7.26607 23.4235 7.93652 24.2386 8.7796C25.0536 9.62269 25.6906 10.6212 26.1118 11.7156C26.5329 12.81 26.7295 13.9779 26.6898 15.1499V20.0899C26.8124 22.1359 27.3752 24.1314 28.3398 25.9399C29.0302 27.0339 29.8494 28.0411 30.7798 28.9399H5.1298Z" fill="black"/>
<path id="Vector_2" d="M18.0003 34.28C18.6302 34.2655 19.2348 34.0287 19.7069 33.6114C20.1791 33.1942 20.4884 32.6234 20.5803 32H15.3203C15.4148 32.6403 15.7386 33.2245 16.2316 33.6439C16.7246 34.0633 17.3531 34.2894 18.0003 34.28Z" fill="black"/>
</g>
<defs>
<clipPath id="clip0_774_6872">
<rect width="36" height="36" fill="white"/>
</clipPath>
</defs>
</svg>
