<svg width="24" height="24" viewBox="0 0 24 24" fill="none" xmlns="http://www.w3.org/2000/svg">
<path d="M9 3V1H7V3H3C2.73478 3 2.48043 3.10536 2.29289 3.29289C2.10536 3.48043 2 3.73478 2 4V20C2 20.2652 2.10536 20.5196 2.29289 20.7071C2.48043 20.8946 2.73478 21 3 21H21C21.2652 21 21.5196 20.8946 21.7071 20.7071C21.8946 20.5196 22 20.2652 22 20V4C22 3.73478 21.8946 3.48043 21.7071 3.29289C21.5196 3.10536 21.2652 3 21 3H17V1H15V3H9ZM4 10H20V19H4V10ZM4 5H7V6H9V5H15V6H17V5H20V8H4V5ZM9.879 10.964L12 13.086L14.121 10.964L15.536 12.379L13.414 14.5L15.535 16.621L14.121 18.035L12 15.915L9.879 18.035L8.464 16.621L10.586 14.501L8.464 12.379L9.879 10.964Z" fill="#2F3DB8"/>
</svg>
