<svg width="12" height="12" viewBox="0 0 12 12" fill="none" xmlns="http://www.w3.org/2000/svg">
<path fill-rule="evenodd" clip-rule="evenodd" d="M9.5 1.49208H10C10.55 1.49208 11 1.9397 11 2.48679V10.4445C11 10.9916 10.55 11.4392 10 11.4392H2C1.45 11.4392 1 10.9916 1 10.4445V2.48679C1 1.9397 1.45 1.49208 2 1.49208H2.5V0.99473C2.5 0.721185 2.725 0.497375 3 0.497375C3.275 0.497375 3.5 0.721185 3.5 0.99473V1.49208H8.5V0.99473C8.5 0.721185 8.725 0.497375 9 0.497375C9.275 0.497375 9.5 0.721185 9.5 0.99473V1.49208ZM2.5 10.4445H9.5C9.775 10.4445 10 10.2207 10 9.94711V3.97886H2V9.94711C2 10.2207 2.225 10.4445 2.5 10.4445Z" fill="#64748B"/>
</svg>
