<svg width="20" height="20" viewBox="0 0 20 20" fill="none" xmlns="http://www.w3.org/2000/svg">
<path d="M16.875 7.0925C17.6117 7.32917 18.125 8.0325 18.125 8.84V12.4117C18.125 13.3583 17.4192 14.1617 16.475 14.2392C16.1917 14.2617 15.9083 14.2825 15.625 14.2992V16.875L13.125 14.375C12.007 14.3751 10.8894 14.3298 9.775 14.2392C9.53444 14.2197 9.30044 14.1511 9.0875 14.0375M16.875 7.0925C16.7462 7.05106 16.6131 7.02449 16.4783 7.01334C14.2466 6.82807 12.0034 6.82807 9.77167 7.01334C8.82917 7.09167 8.125 7.89417 8.125 8.84V12.4117C8.125 13.1092 8.50833 13.7283 9.0875 14.0375M16.875 7.0925V5.53083C16.875 4.18 15.915 3.00917 14.575 2.835C12.8507 2.61149 11.1137 2.49959 9.375 2.5C7.6125 2.5 5.87667 2.61417 4.175 2.835C2.835 3.00917 1.875 4.18 1.875 5.53083V10.7192C1.875 12.07 2.835 13.2408 4.175 13.415C4.65583 13.4775 5.13917 13.5317 5.625 13.5767V17.5L9.0875 14.0375" stroke="black" stroke-width="2" stroke-linecap="round" stroke-linejoin="round"/>
</svg>
