<svg width="22" height="21" viewBox="0 0 22 21" fill="none" xmlns="http://www.w3.org/2000/svg">
<path d="M9.875 1.875V1.125C9.875 0.826631 9.99353 0.540483 10.2045 0.329505C10.4155 0.118526 10.7016 0 11 0C11.2984 0 11.5845 0.118526 11.7955 0.329505C12.0065 0.540483 12.125 0.826631 12.125 1.125V1.875C12.125 2.17337 12.0065 2.45952 11.7955 2.6705C11.5845 2.88147 11.2984 3 11 3C10.7016 3 10.4155 2.88147 10.2045 2.6705C9.99353 2.45952 9.875 2.17337 9.875 1.875ZM17.75 5.25C17.8978 5.25012 18.0441 5.22112 18.1807 5.16465C18.3173 5.10819 18.4414 5.02538 18.5459 4.92094L19.2959 4.17094C19.4006 4.06629 19.4836 3.94206 19.5402 3.80533C19.5969 3.6686 19.626 3.52206 19.626 3.37406C19.626 3.22607 19.5969 3.07952 19.5402 2.9428C19.4836 2.80607 19.4006 2.68183 19.2959 2.57719C19.1913 2.47254 19.0671 2.38953 18.9303 2.3329C18.7936 2.27626 18.6471 2.24711 18.4991 2.24711C18.3511 2.24711 18.2045 2.27626 18.0678 2.3329C17.9311 2.38953 17.8068 2.47254 17.7022 2.57719L16.9522 3.32719C16.7939 3.48454 16.686 3.68541 16.6422 3.90425C16.5984 4.12309 16.6207 4.35001 16.7062 4.55615C16.7918 4.7623 16.9367 4.93834 17.1225 5.06189C17.3084 5.18544 17.5268 5.25092 17.75 5.25ZM3.45406 4.92094C3.66541 5.13228 3.95205 5.25101 4.25094 5.25101C4.54982 5.25101 4.83647 5.13228 5.04781 4.92094C5.25916 4.70959 5.37789 4.42295 5.37789 4.12406C5.37789 3.82518 5.25916 3.53853 5.04781 3.32719L4.29781 2.57719C4.08647 2.36584 3.79982 2.24711 3.50094 2.24711C3.20205 2.24711 2.91541 2.36584 2.70406 2.57719C2.49272 2.78853 2.37399 3.07518 2.37399 3.37406C2.37399 3.67295 2.49272 3.95959 2.70406 4.17094L3.45406 4.92094ZM21.125 16.5V18.75C21.125 19.2473 20.9275 19.7242 20.5758 20.0758C20.2242 20.4275 19.7473 20.625 19.25 20.625H2.75C2.25272 20.625 1.77581 20.4275 1.42417 20.0758C1.07254 19.7242 0.875 19.2473 0.875 18.75V16.5C0.874912 16.0678 1.02417 15.6488 1.29751 15.3139C1.57085 14.9791 1.95149 14.7489 2.375 14.6625V13.125C2.375 10.8375 3.2837 8.64371 4.9012 7.0262C6.51871 5.4087 8.71251 4.5 11 4.5H11.0666C15.7813 4.53562 19.625 8.44687 19.625 13.2188V14.6625C20.0485 14.7489 20.4291 14.9791 20.7025 15.3139C20.9758 15.6488 21.1251 16.0678 21.125 16.5ZM4.625 13.125V14.625H17.375V13.2188C17.375 9.67781 14.5372 6.77625 11.0487 6.75H11C9.30925 6.75 7.68774 7.42165 6.49219 8.61719C5.29665 9.81274 4.625 11.4342 4.625 13.125ZM18.875 16.875H3.125V18.375H18.875V16.875ZM11.7875 10.62C12.191 10.7468 12.5578 10.9691 12.8568 11.2682C13.1559 11.5672 13.3782 11.934 13.505 12.3375C13.5945 12.6222 13.7934 12.8597 14.0581 12.9977C14.3227 13.1357 14.6312 13.1629 14.9159 13.0734C15.2006 12.9839 15.4381 12.785 15.5761 12.5204C15.7141 12.2558 15.7414 11.9472 15.6519 11.6625C15.4164 10.9139 15.0036 10.2331 14.4487 9.6782C13.8937 9.12326 13.213 8.7105 12.4644 8.475C12.1797 8.38549 11.8711 8.41274 11.6065 8.55075C11.3419 8.68877 11.1429 8.92624 11.0534 9.21094C10.9639 9.49563 10.9912 9.80422 11.1292 10.0688C11.2672 10.3334 11.5047 10.5324 11.7894 10.6219L11.7875 10.62Z" fill="#FF0000"/>
</svg>
