<svg width="15" height="14" viewBox="0 0 15 14" fill="none" xmlns="http://www.w3.org/2000/svg">
<path d="M6.91699 5.25002H8.08366V4.08335H6.91699M7.50033 11.6667C4.92783 11.6667 2.83366 9.57252 2.83366 7.00002C2.83366 4.42752 4.92783 2.33335 7.50033 2.33335C10.0728 2.33335 12.167 4.42752 12.167 7.00002C12.167 9.57252 10.0728 11.6667 7.50033 11.6667ZM7.50033 1.16669C6.73428 1.16669 5.97574 1.31757 5.26801 1.61072C4.56027 1.90388 3.91721 2.33356 3.37554 2.87523C2.28157 3.96919 1.66699 5.45292 1.66699 7.00002C1.66699 8.54712 2.28157 10.0308 3.37554 11.1248C3.91721 11.6665 4.56027 12.0962 5.26801 12.3893C5.97574 12.6825 6.73428 12.8334 7.50033 12.8334C9.04742 12.8334 10.5312 12.2188 11.6251 11.1248C12.7191 10.0308 13.3337 8.54712 13.3337 7.00002C13.3337 6.23398 13.1828 5.47543 12.8896 4.7677C12.5965 4.05997 12.1668 3.41691 11.6251 2.87523C11.0834 2.33356 10.4404 1.90388 9.73265 1.61072C9.02491 1.31757 8.26637 1.16669 7.50033 1.16669ZM6.91699 9.91669H8.08366V6.41669H6.91699V9.91669Z" fill="#FF0000"/>
</svg>
