<svg width="6" height="8" viewBox="0 0 6 8" fill="none" xmlns="http://www.w3.org/2000/svg">
<path d="M2.58325 7.74996V6.91663H1.74992V6.08329H2.58325V5.20829C2.03464 5.11107 1.58492 4.84885 1.23409 4.42163C0.883252 3.9944 0.707975 3.49968 0.708252 2.93746C0.708252 2.30551 0.93228 1.76913 1.38034 1.32829C1.82839 0.887459 2.36825 0.666904 2.99992 0.666626C3.63186 0.666626 4.17186 0.887181 4.61992 1.32829C5.06797 1.7694 5.29186 2.30579 5.29159 2.93746C5.29159 3.49996 5.11617 3.99482 4.76534 4.42204C4.4145 4.84926 3.96492 5.11135 3.41659 5.20829V6.08329H4.24992V6.91663H3.41659V7.74996H2.58325ZM2.99992 4.41663C3.4027 4.41663 3.74645 4.27427 4.03117 3.98954C4.31589 3.70482 4.45825 3.36107 4.45825 2.95829C4.45825 2.55551 4.31589 2.21176 4.03117 1.92704C3.74645 1.64232 3.4027 1.49996 2.99992 1.49996C2.59714 1.49996 2.25339 1.64232 1.96867 1.92704C1.68395 2.21176 1.54159 2.55551 1.54159 2.95829C1.54159 3.36107 1.68395 3.70482 1.96867 3.98954C2.25339 4.27427 2.59714 4.41663 2.99992 4.41663Z" fill="white"/>
</svg>
