<svg width="30" height="30" viewBox="0 0 30 30" fill="none" xmlns="http://www.w3.org/2000/svg">
<path d="M16.5023 2.45154C16.4445 2.40364 16.376 2.37032 16.3027 2.35441C16.2293 2.33849 16.1531 2.34043 16.0807 2.36007C16.0082 2.37971 15.9415 2.41647 15.8862 2.46726C15.8309 2.51806 15.7886 2.58139 15.7629 2.65193L12.9328 10.4097L9.58711 7.16365C9.53956 7.11681 9.48256 7.08067 9.41991 7.05763C9.35727 7.0346 9.29043 7.02521 9.22386 7.03009C9.15729 7.03497 9.09254 7.05401 9.03393 7.08594C8.97531 7.11786 8.92419 7.16194 8.88398 7.21522C6.41133 10.459 5.15625 13.7109 5.15625 16.875C5.15625 19.4857 6.19336 21.9895 8.03942 23.8356C9.88548 25.6816 12.3893 26.7187 15 26.7187C17.6107 26.7187 20.1145 25.6816 21.9606 23.8356C23.8066 21.9895 24.8438 19.4857 24.8438 16.875C24.8438 10.1062 19.0102 4.53397 16.5023 2.45154ZM15 25.7812C12.6387 25.7787 10.3748 24.8396 8.70507 23.1699C7.03536 21.5002 6.09623 19.2363 6.09375 16.875C6.09375 14.0543 7.17773 11.141 9.31641 8.20311L12.798 11.5816C12.8542 11.6363 12.9231 11.676 12.9985 11.6971C13.0739 11.7183 13.1534 11.7202 13.2297 11.7027C13.306 11.6852 13.3768 11.6489 13.4354 11.597C13.4941 11.5452 13.5389 11.4794 13.5656 11.4058L16.4133 3.60115C19.016 5.8699 23.9062 10.9195 23.9062 16.875C23.9038 19.2363 22.9646 21.5002 21.2949 23.1699C19.6252 24.8396 17.3613 25.7787 15 25.7812Z" fill="black"/>
<path d="M16.2432 14.0706C17.3083 14.5255 18.2581 15.3925 18.9445 16.5365C19.6309 17.6805 20.0153 19.0372 20.0377 20.3949C20.0601 21.7526 19.7193 23.035 19.0684 24.042C18.4175 25.0491 17.4932 25.7243 16.4395 25.9622C15.3858 26.2001 14.2621 25.9874 13.2436 25.3573C12.2251 24.7272 11.3691 23.715 10.809 22.4787C10.249 21.2424 10.0164 19.8515 10.1476 18.5229C10.2788 17.1943 10.7663 16.0027 11.5342 15.1339L15.0753 19.8868L16.2432 14.0706Z" fill="black"/>
</svg>
