<svg width="32" height="32" viewBox="0 0 32 32" fill="none" xmlns="http://www.w3.org/2000/svg">
<path d="M9.33301 25.3333V8.05063C9.33301 7.65951 9.4659 7.33107 9.73167 7.06529C9.99834 6.79951 10.3272 6.66663 10.7183 6.66663H20.189C20.5481 6.66663 20.8868 6.74974 21.205 6.91596C21.5232 7.08129 21.7788 7.30796 21.9717 7.59596L24.1637 10.7746C24.4232 11.156 24.553 11.5644 24.553 12C24.553 12.4355 24.4232 12.8444 24.1637 13.2266L21.9717 16.4053C21.7788 16.6924 21.5232 16.9191 21.205 17.0853C20.8868 17.2506 20.5481 17.3333 20.189 17.3333H10.6663V25.3333C10.6663 25.5226 10.6028 25.6813 10.4757 25.8093C10.3477 25.9364 10.189 26 9.99967 26C9.81034 26 9.65167 25.9364 9.52367 25.8093C9.39656 25.6813 9.33301 25.5226 9.33301 25.3333ZM10.6663 16H20.2303C20.3672 16 20.4912 15.9702 20.6023 15.9106C20.7135 15.8502 20.8117 15.7604 20.897 15.6413L23.025 12.4613C23.1103 12.3244 23.153 12.1706 23.153 12C23.153 11.8293 23.1103 11.6755 23.025 11.5386L20.897 8.35863C20.8117 8.23951 20.7135 8.14974 20.6023 8.08929C20.4912 8.02974 20.3672 7.99996 20.2303 7.99996H10.6663V16Z" fill="black"/>
</svg>
