<svg width="19" height="18" viewBox="0 0 19 18" fill="none" xmlns="http://www.w3.org/2000/svg">
<path d="M11.52 11.0201C11.52 11.0201 11.6595 10.8806 11.9385 10.6015C12.2175 10.3225 12.357 9.78867 12.357 8.99998C12.357 8.21129 12.078 7.53793 11.52 6.97989C10.9619 6.42186 10.2886 6.14284 9.4999 6.14284C8.7112 6.14284 8.03784 6.42186 7.47981 6.97989C6.92177 7.53793 6.64275 8.21129 6.64275 8.99998C6.64275 9.78867 6.92177 10.462 7.47981 11.0201C8.03784 11.5781 8.7112 11.8571 9.4999 11.8571C10.2886 11.8571 10.9619 11.5781 11.52 11.0201ZM12.6137 5.88614C12.6137 5.88614 12.8276 6.10006 13.2555 6.52789C13.6833 6.95571 13.8972 7.77975 13.8972 8.99998C13.8972 10.2202 13.4694 11.2582 12.6137 12.1138C11.7581 12.9695 10.7201 13.3973 9.4999 13.3973C8.27966 13.3973 7.24171 12.9695 6.38606 12.1138C5.5304 11.2582 5.10257 10.2202 5.10257 8.99998C5.10257 7.77975 5.5304 6.7418 6.38606 5.88614C7.24171 5.03049 8.27966 4.60266 9.4999 4.60266C10.7201 4.60266 11.7581 5.03049 12.6137 5.88614ZM14.8012 3.69864C14.8012 3.69864 14.8515 3.74887 14.9519 3.84931C15.0524 3.94976 15.1026 4.14135 15.1026 4.42409C15.1026 4.70683 15.0021 4.94864 14.8012 5.14954C14.6003 5.35043 14.3585 5.45088 14.0758 5.45088C13.793 5.45088 13.5512 5.35043 13.3503 5.14954C13.1494 4.94864 13.049 4.70683 13.049 4.42409C13.049 4.14135 13.1494 3.89954 13.3503 3.69864C13.5512 3.49775 13.793 3.3973 14.0758 3.3973C14.3585 3.3973 14.6003 3.49775 14.8012 3.69864ZM10.3537 1.96315C10.3537 1.96315 10.2244 1.96408 9.96585 1.96594C9.7073 1.9678 9.55198 1.96873 9.4999 1.96873C9.44781 1.96873 9.16321 1.96687 8.6461 1.96315C8.12899 1.95943 7.7365 1.95943 7.46865 1.96315C7.20079 1.96687 6.84178 1.97803 6.39164 1.99664C5.94149 2.01524 5.5583 2.05244 5.24208 2.10824C4.92586 2.16405 4.65987 2.23287 4.44409 2.31472C4.07207 2.46352 3.74469 2.6793 3.46195 2.96204C3.17921 3.24477 2.96344 3.57216 2.81463 3.94418C2.73278 4.15995 2.66396 4.42595 2.60815 4.74217C2.55235 5.05839 2.51515 5.44158 2.49655 5.89172C2.47795 6.34187 2.46679 6.70088 2.46306 6.96873C2.45934 7.23659 2.45934 7.62908 2.46306 8.14619C2.46679 8.6633 2.46865 8.9479 2.46865 8.99998C2.46865 9.05207 2.46679 9.33666 2.46306 9.85378C2.45934 10.3709 2.45934 10.7634 2.46306 11.0312C2.46679 11.2991 2.47795 11.6581 2.49655 12.1082C2.51515 12.5584 2.55235 12.9416 2.60815 13.2578C2.66396 13.574 2.73278 13.84 2.81463 14.0558C2.96344 14.4278 3.17921 14.7552 3.46195 15.0379C3.74469 15.3207 4.07207 15.5364 4.44409 15.6853C4.65987 15.7671 4.92586 15.8359 5.24208 15.8917C5.5583 15.9475 5.94149 15.9847 6.39164 16.0033C6.84178 16.0219 7.20079 16.0331 7.46865 16.0368C7.7365 16.0405 8.12899 16.0405 8.6461 16.0368C9.16321 16.0331 9.44781 16.0312 9.4999 16.0312C9.55198 16.0312 9.83658 16.0331 10.3537 16.0368C10.8708 16.0405 11.2633 16.0405 11.5311 16.0368C11.799 16.0331 12.158 16.0219 12.6082 16.0033C13.0583 15.9847 13.4415 15.9475 13.7577 15.8917C14.0739 15.8359 14.3399 15.7671 14.5557 15.6853C14.9277 15.5364 15.2551 15.3207 15.5378 15.0379C15.8206 14.7552 16.0364 14.4278 16.1852 14.0558C16.267 13.84 16.3358 13.574 16.3916 13.2578C16.4474 12.9416 16.4846 12.5584 16.5032 12.1082C16.5218 11.6581 16.533 11.2991 16.5367 11.0312C16.5404 10.7634 16.5404 10.3709 16.5367 9.85378C16.533 9.33666 16.5311 9.05207 16.5311 8.99998C16.5311 8.9479 16.533 8.6633 16.5367 8.14619C16.5404 7.62908 16.5404 7.23659 16.5367 6.96873C16.533 6.70088 16.5218 6.34187 16.5032 5.89172C16.4846 5.44158 16.4474 5.05839 16.3916 4.74217C16.3358 4.42595 16.267 4.15995 16.1852 3.94418C16.0364 3.57216 15.8206 3.24477 15.5378 2.96204C15.2551 2.6793 14.9277 2.46352 14.5557 2.31472C14.3399 2.23287 14.0739 2.16405 13.7577 2.10824C13.4415 2.05244 13.0583 2.01524 12.6082 1.99664C12.158 1.97803 11.799 1.96687 11.5311 1.96315C11.2633 1.95943 10.8708 1.95943 10.3537 1.96315ZM18.0155 5.46204C18.0527 6.1168 18.0713 7.29611 18.0713 8.99998C18.0713 10.7039 18.0527 11.8832 18.0155 12.5379C17.9411 14.0855 17.4798 15.2835 16.6316 16.1317C15.7834 16.9799 14.5855 17.4412 13.0378 17.5156C12.3831 17.5528 11.2038 17.5714 9.4999 17.5714C7.79603 17.5714 6.61671 17.5528 5.96195 17.5156C4.41433 17.4412 3.21641 16.9799 2.3682 16.1317C1.51998 15.2835 1.05868 14.0855 0.98427 12.5379C0.947068 11.8832 0.928467 10.7039 0.928467 8.99998C0.928467 7.29611 0.947068 6.1168 0.98427 5.46204C1.05868 3.91442 1.51998 2.7165 2.3682 1.86829C3.21641 1.02007 4.41433 0.558764 5.96195 0.484358C6.61671 0.447157 7.79603 0.428555 9.4999 0.428555C11.2038 0.428555 12.3831 0.447157 13.0378 0.484358C14.5855 0.558764 15.7834 1.02007 16.6316 1.86829C17.4798 2.7165 17.9411 3.91442 18.0155 5.46204Z" fill="#3B3B3B"/>
</svg>
