<svg width="8" height="8" viewBox="0 0 8 8" fill="none" xmlns="http://www.w3.org/2000/svg">
<path d="M7.33329 0.666626V3.16663H6.49996V2.09371L4.84371 3.73954C4.97565 3.93399 5.07635 4.14065 5.14579 4.35954C5.21524 4.57843 5.24996 4.80579 5.24996 5.04163C5.24996 5.68051 5.02774 6.22218 4.58329 6.66663C4.13885 7.11107 3.59718 7.33329 2.95829 7.33329C2.3194 7.33329 1.77774 7.11107 1.33329 6.66663C0.888848 6.22218 0.666626 5.68051 0.666626 5.04163C0.666626 4.40274 0.888848 3.86107 1.33329 3.41663C1.77774 2.97218 2.3194 2.74996 2.95829 2.74996C3.18746 2.74996 3.41315 2.78288 3.63538 2.84871C3.8576 2.91454 4.06246 3.01704 4.24996 3.15621L5.90621 1.49996H4.83329V0.666626H7.33329ZM2.95829 3.58329C2.55551 3.58329 2.21176 3.72565 1.92704 4.01038C1.64232 4.2951 1.49996 4.63885 1.49996 5.04163C1.49996 5.4444 1.64232 5.78815 1.92704 6.07288C2.21176 6.3576 2.55551 6.49996 2.95829 6.49996C3.36107 6.49996 3.70482 6.3576 3.98954 6.07288C4.27427 5.78815 4.41663 5.4444 4.41663 5.04163C4.41663 4.63885 4.27427 4.2951 3.98954 4.01038C3.70482 3.72565 3.36107 3.58329 2.95829 3.58329Z" fill="white"/>
</svg>
