<svg width="12" height="12" viewBox="0 0 12 12" fill="none" xmlns="http://www.w3.org/2000/svg">
<g clip-path="url(#clip0_5568_10882)">
<rect width="12" height="12" rx="6" fill="#001AFF"/>
<path fill-rule="evenodd" clip-rule="evenodd" d="M6 11.0769C8.80385 11.0769 11.0769 8.80385 11.0769 6C11.0769 3.19615 8.80385 0.923077 6 0.923077C3.19615 0.923077 0.923077 3.19615 0.923077 6C0.923077 8.80385 3.19615 11.0769 6 11.0769ZM6 12C9.31385 12 12 9.31385 12 6C12 2.68615 9.31385 0 6 0C2.68615 0 0 2.68615 0 6C0 9.31385 2.68615 12 6 12Z" fill="#001AFF"/>
<path fill-rule="evenodd" clip-rule="evenodd" d="M4.28782 7.42761C4.36739 7.52064 4.48065 7.57825 4.60269 7.58777C4.72473 7.59729 4.84556 7.55794 4.93859 7.47838C5.03162 7.39881 5.08923 7.28555 5.09875 7.16351C5.10828 7.04146 5.06893 6.92064 4.98936 6.82761C4.9098 6.73458 4.79653 6.67697 4.67449 6.66744C4.55245 6.65792 4.43162 6.69727 4.33859 6.77684C4.24556 6.8564 4.18795 6.96967 4.17843 7.09171C4.16891 7.21375 4.20826 7.33458 4.28782 7.42761ZM5.53859 8.17992C5.4004 8.2981 5.24028 8.38792 5.06738 8.44423C4.89448 8.50054 4.71218 8.52224 4.53089 8.5081C4.3496 8.49395 4.17288 8.44424 4.0108 8.3618C3.84872 8.27936 3.70447 8.1658 3.58628 8.02761C3.46809 7.88942 3.37828 7.7293 3.32197 7.5564C3.26566 7.3835 3.24396 7.2012 3.2581 7.01991C3.27224 6.83862 3.32196 6.66189 3.4044 6.49982C3.48684 6.33774 3.6004 6.19349 3.73859 6.0753C4.01768 5.83661 4.38016 5.71855 4.74629 5.74712C5.11242 5.77568 5.4522 5.94852 5.6909 6.22761C5.92959 6.5067 6.04764 6.86918 6.01908 7.23531C5.99052 7.60143 5.81768 7.94122 5.53859 8.17992Z" fill="white"/>
<path fill-rule="evenodd" clip-rule="evenodd" d="M6.41868 9.20714C6.1463 9.44563 5.82925 9.62761 5.48594 9.74252C5.14263 9.85744 4.77992 9.90299 4.41886 9.87654C4.05779 9.85009 3.70559 9.75216 3.38269 9.58845C3.0598 9.42473 2.77265 9.19849 2.53793 8.92286C2.30321 8.64723 2.1256 8.32771 2.0154 7.98286C1.90521 7.63801 1.86464 7.2747 1.89604 6.91404C1.92744 6.55337 2.0302 6.20254 2.19833 5.88192C2.36646 5.56131 2.59663 5.27729 2.87545 5.04638L6.14314 2.35284C6.64068 1.94207 7.38006 2.37591 7.26468 3.01053L7.1433 3.67745L9.24699 1.92407C9.84883 1.42284 10.6893 2.14884 10.2808 2.81668L8.96176 4.97576L9.3753 4.92961C10.0482 4.85484 10.4174 5.69068 9.90883 6.13791L6.41868 9.20714ZM3.23868 8.33161C3.39451 8.51389 3.58502 8.66338 3.79914 8.77137C4.01325 8.87937 4.24671 8.94372 4.48592 8.96068C4.72513 8.97765 4.96532 8.94688 5.19254 8.87019C5.41976 8.79349 5.62946 8.67238 5.80945 8.51391L8.74945 5.92791L8.59576 5.94499C8.02345 6.00868 7.62837 5.38699 7.92883 4.89591L8.76514 3.52745L7.24576 4.79345C6.74868 5.20791 6.0056 4.77453 6.12145 4.13807L6.2433 3.46607L3.46299 5.75853C3.27744 5.91148 3.12423 6.09988 3.01232 6.31271C2.90041 6.52554 2.83204 6.75854 2.8112 6.9981C2.79036 7.23766 2.81747 7.47897 2.89094 7.70793C2.96442 7.93689 3.08233 8.14891 3.23868 8.33161Z" fill="white"/>
</g>
<defs>
<clipPath id="clip0_5568_10882">
<rect width="12" height="12" rx="6" fill="white"/>
</clipPath>
</defs>
</svg>
