<svg width="14" height="10" viewBox="0 0 14 10" fill="none" xmlns="http://www.w3.org/2000/svg">
<path fill-rule="evenodd" clip-rule="evenodd" d="M6.99338 2.30509C6.99338 3.4059 6.10671 4.29451 5.00004 4.29451C3.89338 4.29451 3.00004 3.4059 3.00004 2.30509C3.00004 1.20428 3.89338 0.315674 5.00004 0.315674C6.10671 0.315674 6.99338 1.20428 6.99338 2.30509ZM11.66 3.2998C11.66 4.21493 10.92 4.95765 10 4.95765C9.08005 4.95765 8.33338 4.21493 8.33338 3.2998C8.33338 2.38467 9.08005 1.64195 10 1.64195C10.92 1.64195 11.66 2.38467 11.66 3.2998ZM10 6.28389C8.78 6.28389 6.33333 6.89398 6.33333 8.10752V8.93644C6.33333 9.30117 6.63333 9.59958 7 9.59958H13C13.3667 9.59958 13.6667 9.30117 13.6667 8.93644V8.10752C13.6667 6.89398 11.22 6.28389 10 6.28389ZM0.333374 7.94178C0.333374 6.39667 3.44671 5.62079 5.00004 5.62079C5.44004 5.62079 6.00004 5.68711 6.58004 5.80647C5.22004 6.55582 5.00004 7.5439 5.00004 8.10757V9.59963H1.00004C0.633374 9.59963 0.333374 9.30122 0.333374 8.93649V7.94178Z" fill="black"/>
</svg>
