<svg width="12" height="12" viewBox="0 0 12 12" fill="none" xmlns="http://www.w3.org/2000/svg">
<path fill-rule="evenodd" clip-rule="evenodd" d="M5.995 4C5.995 4.83 5.33 5.5 4.5 5.5C3.67 5.5 3 4.83 3 4C3 3.17 3.67 2.5 4.5 2.5C5.33 2.5 5.995 3.17 5.995 4ZM9.495 4.75C9.495 5.44 8.94 6 8.25 6C7.56 6 7 5.44 7 4.75C7 4.06 7.56 3.5 8.25 3.5C8.94 3.5 9.495 4.06 9.495 4.75ZM8.24997 6.99997C7.33497 6.99997 5.49997 7.45997 5.49997 8.37497V8.99997C5.49997 9.27497 5.72497 9.49997 5.99997 9.49997H10.5C10.775 9.49997 11 9.27497 11 8.99997V8.37497C11 7.45997 9.16497 6.99997 8.24997 6.99997ZM1 8.25C1 7.085 3.335 6.5 4.5 6.5C4.83 6.5 5.25 6.55 5.685 6.64C4.665 7.205 4.5 7.95 4.5 8.375V9.5H1.5C1.225 9.5 1 9.275 1 9V8.25Z" fill="#64748B"/>
</svg>
