<svg width="26" height="26" viewBox="0 0 26 26" fill="none" xmlns="http://www.w3.org/2000/svg">
<g id="rocket_launch">
<path id="Vector" d="M6.50033 16.2495C5.60116 16.2495 4.78866 16.6178 4.20366 17.2028C2.92533 18.4811 2.16699 23.8328 2.16699 23.8328C2.16699 23.8328 7.51866 23.0745 8.79699 21.7961C9.38199 21.2111 9.75033 20.3986 9.75033 19.4995C9.75033 17.7011 8.29866 16.2495 6.50033 16.2495ZM7.26949 20.2686C6.96616 20.572 4.91866 21.092 4.91866 21.092C4.91866 21.092 5.42783 19.0553 5.74199 18.7411C5.92616 18.5353 6.19699 18.4161 6.50033 18.4161C7.09616 18.4161 7.58366 18.9036 7.58366 19.4995C7.58366 19.8028 7.46449 20.0736 7.26949 20.2686ZM18.872 14.787C25.762 7.89696 23.4653 2.53446 23.4653 2.53446C23.4653 2.53446 18.1028 0.237792 11.2128 7.12779L8.51533 6.58613C7.81116 6.44529 7.07449 6.67279 6.55449 7.18196L2.16699 11.5803L7.58366 13.8986L12.1012 18.4161L14.4195 23.8328L18.807 19.4453C19.3162 18.9361 19.5437 18.1995 19.4028 17.4845L18.872 14.787ZM8.02783 11.732L5.95866 10.8436L8.09283 8.70946L9.65283 9.02363C9.03533 9.92279 8.48283 10.8653 8.02783 11.732ZM15.1562 20.0411L14.2678 17.972C15.1345 17.517 16.077 16.9645 16.9653 16.347L17.2795 17.907L15.1562 20.0411ZM17.3337 13.2595C15.9037 14.6895 13.672 15.8595 12.957 16.217L9.78283 13.0428C10.1295 12.3386 11.2995 10.107 12.7403 8.66613C17.8103 3.59613 21.6562 4.34363 21.6562 4.34363C21.6562 4.34363 22.4037 8.18946 17.3337 13.2595ZM16.2503 11.9161C17.442 11.9161 18.417 10.9411 18.417 9.74946C18.417 8.55779 17.442 7.58279 16.2503 7.58279C15.0587 7.58279 14.0837 8.55779 14.0837 9.74946C14.0837 10.9411 15.0587 11.9161 16.2503 11.9161Z" fill="#334155"/>
</g>
</svg>
