<svg width="33" height="33" viewBox="0 0 33 33" fill="none" xmlns="http://www.w3.org/2000/svg">
<path fill-rule="evenodd" clip-rule="evenodd" d="M20.8815 19.8984H21.9678L27.7978 25.7559C28.3615 26.3197 28.3615 27.2409 27.7978 27.8047C27.234 28.3684 26.3128 28.3684 25.749 27.8047L19.9053 21.9609V20.8747L19.534 20.4897C17.609 22.1397 14.9828 22.9922 12.1915 22.5247C8.36903 21.8784 5.31653 18.6884 4.84903 14.8384C4.13403 9.02219 9.02903 4.12719 14.8453 4.84219C18.6953 5.30969 21.8853 8.36219 22.5315 12.1847C22.999 14.9759 22.1465 17.6022 20.4965 19.5272L20.8815 19.8984ZM7.53028 13.7109C7.53028 17.1347 10.294 19.8984 13.7178 19.8984C17.1415 19.8984 19.9053 17.1347 19.9053 13.7109C19.9053 10.2872 17.1415 7.52344 13.7178 7.52344C10.294 7.52344 7.53028 10.2872 7.53028 13.7109Z" fill="#64748B"/>
</svg>
