<svg width="12" height="13" viewBox="0 0 12 13" fill="none" xmlns="http://www.w3.org/2000/svg">
<path d="M5.99497 1.22229C3.23497 1.22229 0.999969 3.45044 0.999969 6.19583C0.999969 8.94123 3.23497 11.1694 5.99497 11.1694C8.75997 11.1694 11 8.94123 11 6.19583C11 3.45044 8.75997 1.22229 5.99497 1.22229ZM5.99997 10.1747C3.78997 10.1747 1.99997 8.39414 1.99997 6.19583C1.99997 3.99753 3.78997 2.217 5.99997 2.217C8.20997 2.217 9.99997 3.99753 9.99997 6.19583C9.99997 8.39414 8.20997 10.1747 5.99997 10.1747ZM6.24997 3.70906H5.49997V6.69319L8.12497 8.25986L8.49997 7.64811L6.24997 6.32017V3.70906Z" fill="#64748B"/>
</svg>
