<svg width="36" height="36" viewBox="0 0 36 36" fill="none" xmlns="http://www.w3.org/2000/svg">
<circle cx="18" cy="18" r="17" fill="#2F3DB8" stroke="white" stroke-width="2"/>
<path d="M17 25.1194H25M23 14.1194L24 15.1194M24.5 11.6194C24.697 11.8164 24.8533 12.0502 24.9599 12.3076C25.0666 12.565 25.1215 12.8408 25.1215 13.1194C25.1215 13.398 25.0666 13.6739 24.9599 13.9312C24.8533 14.1886 24.697 14.4224 24.5 14.6194L15 24.1194L11 25.1194L12 21.1754L21.504 11.6234C21.8786 11.247 22.3811 11.0252 22.9116 11.002C23.4422 10.9789 23.962 11.156 24.368 11.4984L24.5 11.6194Z" stroke="white" stroke-width="1.5" stroke-linecap="round" stroke-linejoin="round"/>
</svg>
